HIERARCHY
ROOT Hips
{
	OFFSET 0.00000 0.00000 0.00000
	CHANNELS 6 Xposition Yposition Zposition Zrotation Yrotation Xrotation 
	JOINT LHipJoint
	{
		OFFSET 0 0 0
		CHANNELS 3 Zrotation Yrotation Xrotation
		JOINT LeftHip
		{
			OFFSET 1.64577 -1.42384 0.94276
			CHANNELS 3 Zrotation Yrotation Xrotation
			JOINT LeftKnee
			{
				OFFSET 2.11538 -5.81197 0.00000
				CHANNELS 3 Zrotation Yrotation Xrotation
				JOINT LeftAnkle
				{
					OFFSET 2.36541 -6.49893 0.00000
					CHANNELS 3 Zrotation Yrotation Xrotation
					JOINT LeftToe
					{
						OFFSET 0.17759 -0.48793 1.73865
						CHANNELS 3 Zrotation Yrotation Xrotation
						End Site
						{
							OFFSET 0.00000 -0.00000 0.91205
						}
					}
				}
			}
		}
	}
	JOINT RHipJoint
	{
		OFFSET 0 0 0
		CHANNELS 3 Zrotation Yrotation Xrotation
		JOINT RightHip
		{
			OFFSET -1.43750 -1.42384 0.94276
			CHANNELS 3 Zrotation Yrotation Xrotation
			JOINT RightKnee
			{
				OFFSET -2.10480 -5.78291 0.00000
				CHANNELS 3 Zrotation Yrotation Xrotation
				JOINT RightAnkle
				{
					OFFSET -2.34880 -6.45329 0.00000
					CHANNELS 3 Zrotation Yrotation Xrotation
					JOINT RightToe
					{
						OFFSET -0.22842 -0.62757 1.80469
						CHANNELS 3 Zrotation Yrotation Xrotation
						End Site
						{
							OFFSET -0.00000 -0.00000 0.95886
						}
					}
				}
			}
		}
	}
	JOINT lowerback
	{
		OFFSET 0 0 0
		CHANNELS 3 Zrotation Yrotation Xrotation
		JOINT Chest
		{
			OFFSET 0.06217 1.93758 -0.49272
			CHANNELS 3 Zrotation Yrotation Xrotation
			JOINT Chest2
			{
				OFFSET -0.03114 2.03621 -0.05830
				CHANNELS 3 Zrotation Yrotation Xrotation
				JOINT lowerneck
				{
					OFFSET 0 0 0
					CHANNELS 3 Zrotation Yrotation Xrotation
					JOINT Neck
					{
						OFFSET 0.04421 1.41010 0.26562
						CHANNELS 3 Zrotation Yrotation Xrotation
						JOINT Head
						{
							OFFSET -0.13407 1.43847 0.06181
							CHANNELS 3 Zrotation Yrotation Xrotation
							End Site
							{
								OFFSET -0.04980 1.45844 -0.00689
							}
						}
					}
				}
				JOINT LeftCollar
				{
					OFFSET 0 0 0
					CHANNELS 3 Zrotation Yrotation Xrotation
					JOINT LeftShoulder
					{
						OFFSET 2.18382 1.47753 -0.35694
CHANNELS 3 Zrotation Xrotation Yrotation
						JOINT LeftElbow
						{
OFFSET 0 -5.054600 0.000000
CHANNELS 3 Zrotation Xrotation Yrotation
							JOINT LeftWrist
							{
OFFSET 0 -3.390130 0.000000
CHANNELS 3 Zrotation Xrotation Yrotation
								JOINT lhand
								{
									OFFSET 0 0 0
CHANNELS 3 Zrotation Xrotation Yrotation
									JOINT LFingers
									{
OFFSET 0 -0.572420 -0.000000
CHANNELS 3 Zrotation Xrotation Yrotation
										End Site
										{
OFFSET 0 -0.461500 -0.000000
										}
									}
								}
								JOINT LThumb
								{
OFFSET 0 0.000000 0.000000
CHANNELS 3 Zrotation Xrotation Yrotation
									End Site
									{
OFFSET 0 -0.468550 0.468550
									}
								}
							}
						}
					}
				}
				JOINT RightCollar
				{
					OFFSET 0 0 0
					CHANNELS 3 Zrotation Yrotation Xrotation
					JOINT RightShoulder
					{
						OFFSET -2.06033 1.72839 -0.47437
CHANNELS 3 Zrotation Xrotation Yrotation
						JOINT RightElbow
						{
OFFSET 0 -5.070100 0.000000
CHANNELS 3 Zrotation Xrotation Yrotation
							JOINT RightWrist
							{
OFFSET 0 -3.149570 -0.000000
CHANNELS 3 Zrotation Xrotation Yrotation
								JOINT rhand
								{
									OFFSET 0 0 0
CHANNELS 3 Zrotation Xrotation Yrotation
									JOINT RFingers
									{
OFFSET 0 -0.718190 -0.000000
CHANNELS 3 Zrotation Xrotation Yrotation
										End Site
										{
OFFSET 0 -0.579020 -0.000000
										}
									}
								}
								JOINT RThumb
								{
OFFSET 0 0.000000 0.000000
CHANNELS 3 Zrotation Xrotation Yrotation
									End Site
									{
OFFSET 0 -0.587860 0.587860
									}
								}
							}
						}
					}
				}
			}
		}
	}
}
MOTION
Frames: 6
Frame Time: 0.008333333333333333
27.744700 15.118300 -0.034600 70.254600 -84.552400 -73.520600 0.000000 0.000000 0.000000 -32.210500 -0.177300 20.853800 0.110100 2.139700 5.891800 0.553700 10.564100 -21.602100 0.086200 -1.893200 -5.210700 0.000000 0.000000 0.000000 14.317500 27.975800 -19.048900 -2.393500 -9.641700 27.824000 -3.672400 -17.915300 -45.443000 -0.008900 0.609700 -1.675600 -5.132700 0.716900 4.274800 -1.351100 0.729900 5.083100 1.463400 0.160900 2.804600 7.142800 3.185300 -8.643700 -3.166100 3.397500 24.051500 -1.970700 1.710400 9.148700 0.000000 0.000000 0.000000 9.909700 -4.521100 -41.041800 21.646500 -32.575300 6.394500 20.316300 -2.563900 -9.327600 0.000000 0.000000 0.000000 -7.125000 0.000000 0.000000 -5.805300 39.849400 -0.739900 0.000000 0.000000 0.000000 -5.831000 9.496100 34.881500 -23.938800 -35.099400 -7.671300 -9.927100 -19.249700 -2.084300 0.000000 0.000000 0.000000 7.125000 0.000000 -0.000000 12.774100 27.782400 5.473700
27.509730 15.079455 -0.053736 69.727319 -84.458863 -73.133239 0.000000 0.000000 0.000000 -32.445545 -0.518706 19.963161 0.291799 3.457613 9.557351 0.714875 10.282764 -22.826764 0.109442 -2.127011 -5.856915 0.000000 0.000000 0.000000 14.772034 26.461335 -18.930958 -2.442034 -9.731738 28.112462 -3.077724 -18.254848 -43.229878 -0.029645 1.111476 -3.055487 -4.980379 0.601014 4.296442 -1.304151 0.577446 5.112894 1.429565 0.087716 2.832866 7.188956 3.284782 -8.808809 -3.267716 3.535979 24.301576 -1.999041 1.766701 9.278201 0.000000 0.000000 0.000000 9.716731 -4.060668 -40.347376 21.490101 -32.395765 6.310560 19.593198 -1.330552 -10.923773 0.000000 0.000000 0.000000 -7.125000 0.000000 0.000000 -6.687261 41.464543 -0.586038 0.000000 0.000000 0.000000 -6.354625 9.741536 35.093150 -24.404575 -35.588994 -7.940786 -11.353669 -19.535411 -1.874164 0.000000 0.000000 0.000000 7.125000 0.000000 0.000000 11.713745 27.997006 4.939790
27.270188 15.068187 -0.074119 68.306622 -84.305724 -71.917870 0.000000 0.000000 0.000000 -32.566348 -1.001514 18.767272 0.605606 4.964048 13.809905 0.739611 10.163708 -22.939971 0.203517 -2.896405 -7.990991 0.000000 0.000000 0.000000 15.298555 24.007941 -18.745692 -2.513991 -9.863339 28.535277 -2.566343 -18.070176 -40.836218 -0.026280 1.045089 -2.872941 -4.693788 0.513428 4.369030 -1.311309 0.462818 5.152928 1.264063 0.038774 2.841062 7.074854 3.281840 -8.754411 -3.230132 3.546402 24.302279 -1.966314 1.765214 9.265319 0.000000 0.000000 0.000000 9.576863 -3.570734 -39.818107 21.015271 -31.845951 6.058110 19.309589 -0.022976 -11.201143 0.000000 0.000000 0.000000 -7.125000 0.000000 0.000000 -6.985523 41.727730 -0.567029 0.000000 0.000000 0.000000 -6.549871 10.006713 34.625783 -24.709562 -35.905571 -8.118949 -11.724785 -20.122423 -1.433311 0.000000 0.000000 0.000000 7.125000 0.000000 0.000000 11.476910 28.439527 4.713447
27.034785 15.053803 -0.094141 67.113959 -84.433607 -70.892294 0.000000 0.000000 0.000000 -32.073283 -0.540139 17.320672 0.997199 6.330932 17.756205 0.765825 9.443910 -22.528810 0.327734 -3.666551 -10.141892 0.000000 0.000000 0.000000 15.943174 22.237558 -18.541395 -2.571391 -9.966579 28.868550 -2.148272 -18.032207 -38.833628 -0.020683 0.928560 -2.552237 -4.202252 0.419377 4.474294 -1.210299 0.342456 5.179083 1.095799 -0.006423 2.815010 7.020230 3.342270 -8.792501 -3.292186 3.651557 24.403089 -1.967619 1.802036 9.313437 0.000000 0.000000 0.000000 9.320272 -3.093383 -39.096212 20.601382 -31.359567 5.841301 19.104941 0.861034 -10.928060 0.000000 0.000000 0.000000 -7.125000 0.000000 0.000000 -7.118618 41.423034 -0.631456 0.000000 0.000000 0.000000 -6.869108 10.137072 34.370366 -24.876802 -36.077854 -8.217231 -12.348854 -20.700373 -1.199703 0.000000 0.000000 0.000000 7.125000 0.000000 0.000000 11.023039 28.677614 4.456978
26.802009 15.049997 -0.115066 65.972878 -84.721658 -69.897824 0.000000 0.000000 0.000000 -31.346138 -0.084068 15.465764 1.552041 7.833339 22.224978 0.710232 8.887903 -21.526632 0.504037 -4.536893 -12.594695 0.000000 0.000000 0.000000 16.709403 20.324456 -18.377292 -2.625466 -10.062544 29.179510 -1.729214 -17.919906 -36.619839 -0.018030 0.867497 -2.384296 -3.532385 0.349940 4.630131 -1.072763 0.257363 5.186468 0.864695 -0.027585 2.738144 6.952667 3.396990 -8.828215 -3.352823 3.750726 24.516830 -1.966959 1.834824 9.365099 0.000000 0.000000 0.000000 9.007691 -2.599778 -38.263460 20.108573 -30.772107 5.587175 19.060863 1.622031 -10.003380 0.000000 0.000000 0.000000 -7.125000 0.000000 0.000000 -7.002707 40.453055 -0.787864 0.000000 0.000000 0.000000 -7.111360 10.159395 33.966688 -24.820531 -36.019814 -8.184160 -13.090179 -21.380283 -1.079277 0.000000 0.000000 0.000000 7.125000 0.000000 0.000000 10.465173 28.803520 4.192439
26.573172 15.056639 -0.137697 65.236068 -85.129756 -69.259108 0.000000 0.000000 0.000000 -30.397780 0.425369 13.137033 2.303472 9.436689 27.198959 0.594680 8.313529 -19.877518 0.715395 -5.395070 -15.041331 0.000000 0.000000 0.000000 17.546445 18.375257 -18.200064 -2.655855 -10.115907 29.353005 -1.357127 -17.646532 -34.335965 -0.016567 0.831638 -2.285705 -2.769169 0.313288 4.809131 -0.905929 0.219571 5.177006 0.610421 -0.022424 2.628545 6.903259 3.451962 -8.868215 -3.446036 3.855217 24.629188 -1.979997 1.868260 9.418551 0.000000 0.000000 0.000000 8.631344 -2.096187 -37.293478 19.573458 -30.124100 5.316106 19.151092 2.194816 -8.549797 0.000000 0.000000 0.000000 -7.125000 0.000000 0.000000 -6.702154 38.939441 -1.003520 0.000000 0.000000 0.000000 -7.299322 10.042879 33.488134 -24.521291 -35.709996 -8.009080 -13.959907 -22.117807 -0.994291 0.000000 0.000000 0.000000 7.125000 0.000000 0.000000 9.802817 28.894646 3.898249
